<svg id="visual" viewBox="0 0 900 600" width="900" height="600" xmlns="http://www.w3.org/2000/svg" xmlns:xlink="http://www.w3.org/1999/xlink" version="1.1"><g transform="translate(824.5605442177399 476.050838799856)"><path d="M126.6 -209C170 -169.2 215.1 -144 318 -93.8C420.9 -43.6 581.6 31.6 583.2 90.3C584.8 149.1 427.3 191.4 316.3 217C205.3 242.5 140.8 251.3 61.7 328.7C-17.5 406.2 -111.3 552.3 -203.7 578.1C-296.2 603.8 -387.3 509.2 -419.1 402.3C-450.9 295.3 -423.4 176.1 -357.9 100.5C-292.4 25 -188.8 -7 -157.3 -70C-125.7 -133.1 -166.1 -227.2 -151.9 -280.4C-137.7 -333.6 -68.8 -345.8 -13.6 -324.6C41.6 -303.4 83.3 -248.9 126.6 -209" fill="#8E6DFF"></path></g></svg>